<?xml version="1.0" standalone="no"?>
<!DOCTYPE svg PUBLIC "-//W3C//DTD SVG 20010904//EN"
 "http://www.w3.org/TR/2001/REC-SVG-20010904/DTD/svg10.dtd">
<svg version="1.0" xmlns="http://www.w3.org/2000/svg"
 width="1233.000000pt" height="1233.000000pt" viewBox="0 0 1233.000000 1233.000000"
 preserveAspectRatio="xMidYMid meet">
<metadata>
Created by potrace 1.11, written by Peter Selinger 2001-2013
</metadata>
<g transform="translate(0.000000,1233.000000) scale(0.100000,-0.100000)"
fill="#000000" stroke="none">
<path d="M4709 12096 c-2 -2 -58 -6 -124 -10 -172 -9 -330 -25 -361 -36 -48
-18 -115 -30 -191 -35 -41 -2 -80 -8 -86 -13 -13 -10 -69 -19 -177 -28 -36 -3
-73 -11 -84 -16 -13 -7 -16 -7 -12 1 8 13 -35 15 -49 3 -20 -18 -94 -34 -131
-30 -41 5 -126 -13 -148 -31 -7 -6 -39 -12 -71 -15 -32 -3 -61 -10 -65 -17 -6
-8 -9 -8 -11 0 -5 14 -39 4 -39 -11 0 -6 6 -5 15 2 11 9 15 9 15 1 0 -13 109
-9 131 5 7 4 10 3 6 -3 -8 -12 20 -26 33 -18 18 11 90 13 83 3 -3 -7 -1 -8 6
-4 19 12 61 17 74 9 25 -16 97 -22 125 -12 15 6 21 5 17 -1 -4 -7 2 -9 17 -6
39 7 58 18 52 28 -4 6 3 5 15 -1 13 -7 28 -8 39 -3 9 5 35 8 57 6 22 -2 116
-3 209 -3 132 -1 174 -4 192 -15 13 -9 35 -13 56 -10 101 14 130 16 172 10 30
-5 46 -12 46 -22 0 -15 -7 -17 -56 -14 -17 0 -70 -13 -119 -29 -48 -17 -95
-31 -103 -31 -37 0 -123 -34 -153 -61 -26 -23 -39 -28 -61 -24 -17 4 -49 -1
-83 -14 -30 -11 -55 -18 -55 -16 0 8 -53 -28 -66 -44 -7 -9 -38 -15 -90 -17
-52 -3 -107 -13 -155 -30 -61 -21 -98 -26 -209 -30 -74 -3 -139 -4 -145 -4
-95 14 -356 -1 -382 -22 -7 -5 -26 -7 -42 -3 -40 9 -71 -2 -71 -24 0 -29 134
-156 181 -173 41 -14 26 -40 -46 -81 -34 -20 -70 -43 -78 -51 -8 -8 -37 -28
-65 -43 -80 -45 -455 -403 -523 -500 -16 -23 -35 -46 -43 -50 -7 -4 -34 -39
-59 -78 -74 -111 -78 -116 -103 -125 -14 -6 -24 -18 -24 -28 0 -11 -8 -30 -19
-43 -18 -23 -24 -24 -132 -23 -137 1 -230 11 -285 31 -42 15 -79 13 -176 -7
-72 -16 -93 -36 -78 -76 6 -16 10 -44 9 -64 -2 -22 6 -48 20 -70 12 -19 24
-44 27 -55 4 -16 81 -85 87 -78 1 1 20 -3 42 -8 36 -9 60 -14 105 -23 8 -1 43
-6 78 -11 34 -4 61 -10 59 -14 -2 -3 -11 -24 -20 -46 -10 -22 -22 -47 -27 -55
-27 -42 -40 -72 -42 -95 -1 -14 -10 -28 -21 -31 -13 -4 -16 -11 -11 -26 11
-37 -14 -64 -73 -78 -49 -12 -63 -11 -136 7 -86 22 -169 22 -236 1 -18 -6 -61
-38 -94 -71 -56 -56 -60 -62 -50 -88 9 -23 8 -32 -8 -50 -10 -12 -19 -32 -19
-45 0 -12 -12 -37 -26 -54 -19 -22 -27 -44 -29 -77 -1 -25 -7 -48 -13 -51 -6
-4 -10 -38 -9 -79 0 -40 -2 -75 -5 -78 -3 -3 -3 -27 0 -54 2 -30 0 -51 -7 -55
-15 -10 -14 -45 2 -76 8 -14 12 -41 10 -60 -1 -19 -2 -69 -2 -110 1 -91 1
-163 -1 -210 -2 -54 -2 -73 -1 -95 6 -160 13 -307 15 -335 2 -19 4 -44 5 -55
0 -11 17 -38 36 -59 39 -45 45 -81 20 -140 -8 -19 -18 -77 -21 -128 -3 -51 -7
-95 -9 -98 -2 -4 2 -18 10 -33 17 -34 31 -173 17 -190 -20 -25 -17 -193 6
-308 5 -26 7 -67 5 -91 -3 -32 0 -48 11 -58 9 -7 16 -23 16 -37 0 -13 7 -35
16 -48 8 -13 14 -32 13 -42 -4 -24 20 -93 38 -115 9 -10 12 -25 8 -38 -4 -13
-1 -28 8 -38 32 -36 47 -103 47 -217 0 -16 9 -44 20 -63 11 -18 20 -46 20 -61
0 -16 7 -48 15 -71 8 -24 18 -57 21 -74 3 -17 16 -42 29 -56 34 -36 73 -120
71 -152 -1 -17 3 -28 11 -28 7 0 13 -6 13 -13 0 -8 11 -24 25 -37 14 -13 25
-30 25 -37 0 -8 11 -29 25 -47 14 -18 25 -42 25 -52 0 -11 13 -38 28 -60 16
-21 35 -55 42 -74 8 -19 22 -46 32 -60 63 -83 85 -110 149 -179 40 -42 97 -98
128 -125 31 -27 59 -57 63 -67 4 -10 20 -25 35 -33 31 -15 153 -130 153 -143
1 -11 47 -63 57 -63 5 0 15 -10 23 -22 29 -43 86 -95 117 -107 18 -7 31 -16
30 -20 -3 -9 61 -71 73 -71 6 0 27 -15 47 -33 21 -19 66 -52 100 -75 34 -23
66 -48 70 -55 11 -20 132 -90 181 -107 30 -9 44 -20 48 -36 4 -15 26 -35 60
-54 30 -16 54 -35 54 -40 0 -6 3 -9 8 -8 9 3 106 -30 136 -46 11 -6 41 -25 66
-42 25 -17 63 -37 85 -43 94 -29 159 -62 163 -84 2 -10 -17 -52 -42 -93 -25
-41 -46 -79 -46 -84 0 -6 -7 -10 -15 -10 -8 0 -22 -17 -30 -37 -9 -21 -28 -50
-42 -65 -15 -16 -23 -33 -20 -42 4 -9 -2 -21 -12 -28 -10 -7 -23 -30 -30 -50
-7 -21 -17 -40 -22 -44 -5 -3 -16 -21 -24 -40 -8 -19 -19 -34 -24 -34 -6 0
-11 -9 -11 -21 0 -11 -9 -32 -20 -46 -11 -14 -20 -32 -20 -40 0 -8 -9 -33 -21
-56 -12 -23 -23 -58 -25 -77 -5 -50 -12 -80 -22 -94 -6 -6 -13 -27 -17 -46 -4
-19 -12 -41 -17 -47 -6 -7 -8 -20 -4 -28 3 -8 1 -27 -4 -40 -8 -20 -6 -27 5
-31 18 -7 4 -40 -29 -66 -11 -10 -16 -18 -10 -18 8 0 10 -12 4 -38 -8 -41 -7
-76 4 -110 5 -15 2 -32 -9 -49 -14 -20 -16 -40 -12 -85 5 -53 3 -62 -21 -90
-26 -30 -27 -37 -27 -140 0 -59 -3 -108 -7 -108 -5 0 -8 -7 -8 -15 0 -8 5 -15
10 -15 6 0 10 -9 10 -20 0 -11 -4 -20 -10 -20 -16 0 -11 -35 8 -56 10 -10 19
-23 20 -29 7 -34 16 -45 35 -45 12 0 37 -16 56 -35 31 -32 61 -46 61 -27 0 7
48 32 62 32 10 0 30 -46 34 -75 3 -19 -2 -39 -22 -90 -10 -26 -11 -32 -13 -49
0 -8 -12 -27 -25 -43 -13 -16 -28 -44 -33 -63 -5 -21 -18 -39 -31 -45 -26 -11
-29 -42 -5 -47 14 -2 12 -8 -11 -33 -18 -20 -29 -26 -33 -17 -18 44 -63 -28
-63 -103 0 -26 -7 -51 -19 -66 -31 -40 -64 -112 -66 -146 -3 -38 -12 -53 -30
-53 -21 0 -45 -41 -45 -76 0 -17 -7 -37 -15 -44 -8 -7 -15 -27 -15 -45 0 -34
-16 -55 -46 -59 -10 -2 -20 -9 -22 -16 -3 -8 1 -11 11 -7 11 4 14 0 10 -16 -3
-13 -1 -18 4 -12 9 11 38 13 49 3 3 -4 3 -15 -1 -25 -5 -10 -7 -21 -7 -25 1
-5 -3 -8 -9 -8 -5 0 -7 -5 -3 -12 5 -7 3 -8 -6 -3 -16 10 -30 -12 -30 -50 1
-20 10 -40 30 -59 16 -16 27 -33 24 -38 -9 -14 15 -36 47 -43 23 -5 28 -11 24
-25 -12 -37 16 -36 90 3 17 9 18 8 8 -4 -7 -9 -8 -20 -3 -29 7 -11 13 -10 35
4 27 18 29 18 64 -2 36 -20 70 -17 86 7 3 6 22 9 43 6 20 -3 53 -7 72 -9 19
-2 52 -11 74 -20 37 -17 81 -23 191 -30 28 -2 68 -7 90 -10 22 -4 52 -3 67 3
15 6 30 6 33 1 3 -4 24 -11 48 -15 23 -4 69 -20 103 -36 45 -21 75 -28 116
-28 62 1 113 -12 170 -42 20 -11 50 -18 65 -16 15 2 45 0 68 -5 22 -5 53 -11
68 -13 15 -3 56 -10 90 -16 34 -6 86 -15 116 -20 29 -5 61 -13 70 -18 9 -4 42
-7 74 -7 31 1 57 -2 57 -6 0 -11 39 -20 52 -11 20 12 31 11 57 -5 14 -8 35
-12 55 -8 17 3 57 2 87 -4 30 -6 118 -12 194 -15 77 -2 178 -7 225 -10 47 -4
159 -8 250 -9 91 -2 175 -6 188 -9 12 -3 39 1 59 9 29 13 47 14 86 6 27 -5 69
-8 93 -6 30 2 48 -2 59 -13 14 -13 22 -14 55 -4 27 8 46 8 65 1 15 -6 32 -7
38 -3 7 4 68 8 137 9 147 3 332 13 338 19 2 2 16 -1 31 -7 14 -5 108 -11 208
-13 101 -2 191 -8 200 -14 12 -6 26 -5 45 5 19 10 59 15 121 14 50 0 142 -1
202 -1 110 -1 164 -1 188 0 34 2 117 -6 122 -11 4 -3 20 -2 36 2 17 5 43 4 62
-1 17 -6 92 -11 165 -12 127 -3 135 -4 151 -26 17 -22 18 -22 36 -4 22 21 120
28 173 11 22 -7 42 -6 63 1 22 8 35 7 50 -2 16 -10 21 -9 28 2 6 10 19 12 42
7 48 -10 177 -13 191 -5 7 4 28 1 47 -7 30 -13 37 -13 46 -1 12 16 78 28 200
34 193 9 367 2 390 -17 10 -8 46 -9 132 -2 65 5 156 8 203 7 47 -2 91 2 98 7
11 10 42 8 142 -7 19 -3 40 -6 45 -5 6 0 28 2 50 4 101 9 203 8 223 -3 21 -11
234 -17 251 -7 17 11 115 29 148 27 24 -1 35 5 44 20 10 19 17 21 65 15 62 -7
132 8 185 41 22 13 45 20 58 16 12 -3 27 0 34 5 7 6 51 14 98 17 75 6 87 9
109 34 14 15 37 33 52 39 20 8 28 20 33 49 4 21 13 52 20 68 14 31 14 33 -29
150 -32 87 -86 136 -140 126 -12 -3 -67 19 -85 33 -14 11 -28 14 -72 19 -14 1
-26 7 -26 12 0 40 -7 58 -33 87 -16 18 -30 42 -30 55 0 12 -7 29 -16 38 -18
17 -38 89 -23 79 14 -8 10 12 -5 25 -7 6 -11 22 -8 36 3 17 -1 27 -12 31 -9 3
-16 18 -16 33 0 14 -11 49 -25 76 -13 28 -25 58 -25 68 0 9 -4 25 -9 35 -6 9
-22 46 -37 82 -15 36 -35 76 -44 90 -9 14 -24 50 -34 80 -10 30 -42 98 -71
150 -29 52 -54 100 -55 105 -1 6 -8 17 -15 25 -7 8 -17 29 -21 45 -4 17 -22
47 -40 68 -19 20 -34 45 -34 54 0 9 -16 39 -35 67 -19 28 -45 71 -57 96 -13
25 -32 49 -44 54 -11 5 -28 29 -38 53 -10 24 -27 48 -37 54 -10 5 -19 14 -19
20 0 5 -9 20 -21 32 -11 12 -30 35 -42 51 -12 16 -35 43 -52 59 -16 16 -30 32
-31 36 -3 19 -18 41 -28 41 -16 0 -87 60 -82 69 8 12 -8 26 -51 45 -27 12 -43
26 -45 40 -2 11 -12 25 -24 31 -11 6 -19 15 -17 21 2 6 -12 19 -31 28 -20 10
-36 26 -40 41 -5 18 -13 25 -30 25 -21 0 -70 39 -50 40 5 1 -7 9 -26 18 -19 9
-41 29 -48 44 -7 16 -24 29 -41 33 -16 3 -32 13 -35 21 -3 8 -18 19 -33 25
-16 5 -36 23 -45 39 -9 17 -27 34 -40 39 -13 5 -32 19 -43 31 -11 12 -38 31
-60 42 -41 22 -128 92 -202 166 -23 23 -46 42 -51 42 -5 0 -18 11 -30 25 -12
14 -28 25 -37 25 -8 0 -19 8 -24 19 -6 10 -22 21 -35 25 -14 3 -28 16 -32 29
-9 29 -34 57 -60 67 -49 19 -69 130 -24 130 9 0 23 7 30 15 7 8 20 15 30 15
10 0 23 7 30 15 7 8 17 15 23 15 6 0 33 22 59 50 26 27 54 50 61 50 7 0 23 14
35 30 13 17 29 30 37 30 8 0 40 21 71 46 32 26 67 47 78 48 12 1 22 9 25 21 5
26 38 58 79 74 20 9 32 20 32 32 0 12 10 23 25 29 15 6 25 17 25 30 0 11 4 20
10 20 16 0 160 135 160 151 0 5 25 34 55 64 30 30 55 58 55 64 0 5 13 15 30
22 21 10 30 21 32 43 2 23 9 32 28 36 14 4 24 13 23 21 -1 8 16 28 37 44 22
17 42 37 45 45 3 9 37 49 75 90 47 50 72 85 76 107 4 20 18 43 36 56 16 13 30
31 32 39 1 9 7 22 13 29 6 8 13 28 16 44 8 49 18 68 55 107 27 28 36 47 38 76
1 28 14 55 46 98 45 61 81 127 84 155 0 9 13 32 28 51 14 19 26 40 26 47 0 6
10 31 22 54 13 23 23 47 23 53 0 6 8 19 18 28 9 10 20 29 23 44 4 15 13 34 20
42 7 9 19 40 25 70 7 31 28 80 49 111 24 36 39 73 44 104 3 27 11 54 16 59 6
6 10 21 10 36 0 14 9 40 21 59 14 23 18 42 14 62 -4 15 -1 38 6 51 7 13 14 46
15 73 1 28 8 75 15 105 7 30 13 88 13 128 1 66 4 76 26 95 23 20 25 30 27 108
2 47 9 101 16 120 8 19 14 67 15 107 0 54 6 83 21 113 17 32 22 58 21 113 0
39 2 85 6 101 6 30 8 49 17 140 3 28 9 58 12 68 4 9 1 24 -6 33 -18 22 -18 52
-2 85 11 22 12 33 3 50 -9 16 -9 27 0 44 10 18 9 27 -4 47 -13 20 -14 31 -6
52 5 15 7 32 4 38 -4 6 -8 52 -11 102 -2 50 -6 118 -9 151 -3 33 -7 87 -9 120
-1 33 -7 71 -13 86 -6 15 -6 31 -1 41 5 9 4 29 -1 49 -13 45 -13 92 1 106 12
12 -26 101 -70 166 -12 19 -17 40 -14 60 3 22 -2 39 -14 52 -13 14 -18 34 -18
67 1 26 4 51 8 54 3 4 -3 18 -13 32 -11 13 -20 30 -20 38 0 7 -5 14 -11 16 -6
2 -14 27 -17 56 -2 29 -9 52 -14 52 -5 0 -7 4 -3 9 3 5 1 12 -4 15 -17 11 -41
112 -35 145 6 27 1 37 -35 76 -23 25 -38 50 -35 58 3 8 -1 21 -10 29 -12 13
-50 89 -91 183 -36 85 -47 103 -80 140 -20 22 -46 58 -57 80 -11 22 -28 49
-38 60 -11 11 -21 33 -24 49 -3 16 -18 43 -34 60 -35 37 -76 96 -67 96 9 0
-56 93 -71 103 -17 10 -70 89 -79 116 -3 12 -22 33 -41 47 -19 15 -34 31 -34
37 0 21 -53 78 -91 98 -22 11 -43 28 -46 37 -9 25 -37 49 -51 44 -6 -2 -12 1
-12 7 0 6 -3 10 -7 9 -14 -4 -80 33 -119 66 -22 18 -59 43 -84 56 -25 12 -66
40 -92 61 -26 21 -51 39 -56 39 -5 0 -16 7 -23 16 -7 9 -22 20 -34 25 -39 19
-66 37 -93 62 -15 14 -38 27 -52 29 -24 3 -64 50 -96 116 -9 17 -20 33 -25 33
-19 3 -25 5 -46 17 -13 7 -62 16 -110 21 -78 8 -134 25 -193 61 -44 26 -224
64 -262 55 -13 -3 -52 1 -87 9 -35 7 -98 14 -140 15 -42 1 -96 7 -121 13 -48
11 -95 15 -315 23 -277 10 -330 14 -400 35 -60 19 -136 34 -210 44 -11 1 -31
8 -44 15 -33 18 -120 38 -206 46 -38 4 -81 12 -94 17 -13 5 -40 11 -60 14 -20
3 -45 11 -55 16 -30 16 3 30 44 18 19 -5 36 -7 39 -5 9 9 -6 14 -60 21 -67 7
-136 45 -141 77 -2 14 -10 22 -23 23 -32 2 -132 43 -145 59 -7 8 -22 15 -34
15 -28 0 -144 36 -161 50 -7 6 -51 13 -96 15 -46 2 -97 6 -114 10 -16 3 -93 7
-170 10 -77 2 -189 7 -250 11 -110 7 -206 8 -300 3 -27 -2 -140 1 -250 5 -110
5 -225 8 -255 7 -30 -2 -82 -4 -115 -5 -33 -1 -70 1 -81 5 -12 4 -24 6 -25 5z
m2095 -537 c-5 -8 -1 -8 13 0 11 6 23 8 26 4 4 -3 21 -7 39 -8 18 -2 33 -4 33
-5 0 -1 20 -4 45 -6 92 -6 153 -19 158 -33 3 -8 0 -11 -6 -8 -5 4 -15 0 -22
-8 -7 -8 -19 -15 -26 -15 -8 0 -14 -4 -14 -10 0 -5 -9 -10 -19 -10 -11 0 -23
-4 -26 -10 -3 -5 -14 -10 -24 -10 -9 0 -30 -13 -46 -30 -15 -16 -41 -32 -56
-35 -16 -4 -31 -11 -34 -16 -4 -5 -13 -9 -22 -9 -8 0 -42 -18 -75 -40 -33 -22
-68 -40 -77 -40 -9 0 -36 -16 -60 -35 -24 -19 -52 -35 -61 -35 -10 0 -34 -13
-55 -30 -20 -16 -63 -42 -94 -57 -31 -15 -57 -31 -59 -35 -7 -15 -52 -9 -52 7
0 20 70 97 84 92 6 -2 16 3 22 11 6 9 18 16 27 18 18 2 87 53 87 63 0 4 20 28
45 53 45 47 47 52 49 143 1 33 6 43 35 62 19 13 46 24 60 24 62 3 92 7 98 13
10 10 15 7 7 -5z m-1444 -197 c0 -19 -39 -42 -81 -47 -24 -3 -66 -13 -94 -21
-27 -8 -72 -17 -100 -20 -27 -3 -83 -14 -122 -25 -40 -10 -85 -19 -100 -19
-16 0 -48 -10 -73 -23 -47 -24 -54 -25 -83 -13 -9 5 -23 4 -30 -2 -6 -5 -21
-8 -31 -6 -11 1 -33 -4 -50 -13 -19 -10 -67 -18 -126 -21 -52 -2 -106 -10
-120 -17 -40 -20 -109 -28 -125 -15 -8 6 -20 8 -26 4 -17 -10 -80 -7 -93 6
-13 13 18 46 49 53 14 2 22 0 19 -4 -10 -16 6 -9 26 11 11 11 20 25 20 30 0 6
9 10 20 10 12 0 32 7 45 16 14 9 35 14 47 11 12 -3 30 -1 41 5 15 8 18 7 11
-4 -6 -11 -5 -11 9 1 9 7 17 11 17 9 0 -3 19 -1 43 4 23 5 56 11 72 13 73 10
83 12 94 19 6 4 18 2 26 -4 11 -9 19 -10 28 -1 8 6 17 8 20 4 4 -3 14 0 24 8
11 9 14 10 9 2 -5 -10 1 -11 24 -7 17 4 41 7 53 8 12 0 25 5 28 9 3 5 36 10
72 12 37 2 72 7 78 11 8 5 9 3 4 -6 -6 -9 -4 -11 5 -5 15 9 150 13 150 4 0 -4
30 1 66 10 75 18 154 25 154 13z m2233 -26 c28 -21 23 -37 -29 -89 -26 -26
-86 -63 -174 -108 -80 -40 -132 -78 -124 -91 3 -5 -3 -4 -15 4 -18 11 -25 10
-43 -2 -23 -14 -113 -62 -237 -127 -36 -18 -76 -33 -90 -33 -14 -1 -37 -7 -51
-15 -14 -8 -37 -14 -52 -15 -15 0 -29 -4 -32 -9 -10 -15 -179 -92 -213 -96
-39 -5 -26 22 20 40 49 19 89 53 80 68 -3 6 -1 7 5 3 7 -4 12 -3 12 3 0 9 43
28 47 20 1 -2 13 7 27 20 16 15 26 19 26 11 0 -7 3 -10 7 -6 4 4 8 15 8 24 0
10 21 27 52 42 29 15 50 29 47 32 -3 4 4 9 15 13 12 3 21 11 21 16 0 5 5 9 11
9 16 0 103 42 111 53 6 10 18 14 65 22 12 2 32 10 44 18 12 9 28 13 37 10 11
-5 14 -2 9 10 -5 12 -1 17 14 17 11 0 22 7 26 16 4 10 8 12 12 5 5 -7 22 0 49
20 23 17 49 28 57 25 8 -3 17 -1 20 4 3 5 12 7 20 3 8 -3 15 -1 15 4 0 12 65
43 90 43 10 0 26 -7 34 -16 9 -8 16 -12 16 -7 0 5 -5 14 -10 19 -7 7 -3 17 10
32 24 25 38 27 63 8z m535 -70 c7 -4 28 -10 45 -13 18 -2 38 -11 46 -18 13
-12 10 -18 -19 -43 -18 -16 -30 -34 -26 -40 3 -6 2 -13 -4 -17 -5 -3 -10 -23
-10 -44 0 -23 -6 -44 -15 -51 -9 -7 -14 -19 -11 -25 5 -15 -56 -146 -76 -162
-8 -7 -34 -42 -59 -78 -29 -44 -53 -68 -71 -73 -15 -4 -51 -28 -80 -54 -87
-77 -170 -128 -208 -128 -12 0 -30 -10 -39 -21 -11 -14 -39 -26 -77 -34 -55
-11 -60 -10 -75 9 -36 47 -36 109 1 119 13 3 20 13 20 30 0 13 7 30 15 37 8 7
15 19 15 26 0 8 5 14 10 14 6 0 14 8 17 17 4 10 23 33 42 51 20 19 29 31 21
27 -14 -6 -9 -1 53 48 15 12 42 37 59 55 17 17 33 30 36 28 6 -7 32 20 32 33
0 6 6 11 13 11 6 1 30 18 51 40 21 21 50 41 63 44 12 4 23 11 23 17 0 6 -4 7
-10 4 -5 -3 -10 -4 -10 -1 0 3 18 17 39 31 22 13 40 32 40 42 1 45 6 56 23 61
10 2 15 9 11 15 -3 5 -7 20 -9 32 -2 21 2 22 55 21 31 -1 62 -5 69 -10z
m-4475 -54 c28 -2 37 -28 16 -49 -14 -14 -15 -133 -1 -160 7 -12 12 -31 12
-42 0 -36 46 -121 65 -121 4 0 13 -7 21 -15 9 -8 27 -18 42 -21 15 -3 34 -8
42 -11 8 -3 33 -5 55 -5 185 2 235 5 235 12 0 4 9 6 20 3 11 -3 32 0 48 6 23
9 63 17 120 23 6 1 12 4 12 8 0 3 17 6 38 6 41 1 96 11 121 23 9 4 26 6 39 5
12 0 22 3 22 9 0 5 7 4 15 -3 9 -7 15 -8 15 -2 0 5 6 10 13 9 32 -1 48 4 42
13 -3 5 0 7 8 4 8 -3 31 2 51 10 25 10 34 11 29 3 -5 -9 -3 -9 8 -1 8 6 25 10
37 8 13 -2 37 5 53 17 19 13 29 16 29 8 0 -8 5 -6 13 5 7 10 29 19 48 21 18 1
45 6 59 10 14 4 42 7 63 8 20 0 37 4 37 8 0 4 7 10 16 13 8 3 12 2 9 -4 -9
-15 7 -12 31 5 12 8 24 12 27 9 3 -3 18 1 34 9 15 8 34 12 41 10 6 -3 12 0 12
6 0 6 6 8 14 5 8 -3 43 1 78 10 79 18 141 30 151 28 4 -1 7 2 7 7 0 8 15 12
88 27 6 1 12 -2 12 -7 0 -6 5 -7 12 -3 23 14 60 12 77 -5 17 -17 17 -46 0 -35
-5 3 -4 -6 3 -21 10 -22 8 -30 -9 -53 -11 -15 -19 -37 -17 -49 2 -11 -3 -26
-11 -33 -13 -11 -10 -44 4 -36 3 2 6 -15 6 -37 0 -23 6 -47 13 -52 7 -6 14
-20 15 -32 0 -12 5 -19 9 -17 4 3 10 -7 14 -21 3 -14 11 -24 18 -23 6 1 21 -2
34 -6 26 -9 20 -26 -9 -26 -23 0 -24 -8 -4 -31 14 -15 14 -18 0 -32 -8 -9 -15
-22 -15 -29 0 -7 -7 -22 -15 -32 -8 -11 -15 -30 -15 -42 0 -12 -5 -24 -12 -26
-6 -2 -11 -29 -12 -66 -1 -34 -4 -62 -8 -62 -14 0 -8 -31 7 -36 8 -4 13 -10
10 -15 -3 -4 4 -13 15 -19 11 -6 20 -15 20 -21 0 -14 41 -48 58 -49 7 0 11 -4
8 -8 -3 -5 5 -8 17 -8 14 1 21 -4 19 -13 -2 -11 0 -12 11 -3 8 7 16 10 18 8
11 -11 103 -15 116 -5 7 6 13 8 13 4 0 -4 6 -3 13 3 6 5 26 12 42 15 38 6 85
28 85 39 0 4 5 8 12 8 7 0 28 11 48 25 20 14 46 27 58 30 11 2 30 9 41 15 12
6 21 8 21 5 0 -3 11 2 25 11 13 8 29 13 35 9 5 -3 13 1 16 9 3 9 11 13 16 10
6 -4 14 -1 18 5 4 7 13 13 21 15 8 1 37 13 64 26 28 13 73 34 100 46 28 12 78
35 113 50 34 16 62 32 62 36 0 4 7 8 15 8 16 0 50 17 77 38 9 8 21 11 26 8 5
-3 20 2 33 12 53 39 108 57 157 53 6 -1 12 -11 12 -24 0 -13 -6 -29 -12 -36
-11 -10 -10 -11 5 -6 21 9 21 5 2 -31 -8 -16 -15 -39 -15 -51 0 -12 -4 -24 -8
-27 -11 -7 -12 -186 -1 -186 5 0 9 -13 9 -29 0 -16 7 -34 15 -41 8 -7 15 -18
15 -24 0 -21 134 -96 162 -91 10 2 18 0 18 -5 0 -12 132 -5 156 8 11 5 22 10
27 10 4 0 29 3 55 8 26 4 51 7 55 5 5 -1 6 3 2 8 -3 6 12 15 34 22 23 7 38 16
34 22 -4 6 0 8 10 4 10 -3 17 -3 17 1 0 4 9 8 19 9 11 1 38 13 60 27 22 14 47
26 56 26 8 0 15 4 15 9 0 5 13 14 29 21 16 6 32 18 35 26 3 8 13 14 21 14 19
0 135 87 135 101 0 5 7 9 15 9 8 0 15 7 15 15 0 8 6 15 13 15 8 0 22 9 32 20
10 11 20 18 22 16 5 -5 43 31 43 39 0 3 9 15 20 27 11 12 20 24 20 28 0 10 42
9 62 -1 10 -6 16 -14 13 -19 -3 -5 3 -15 12 -22 10 -7 19 -20 21 -28 2 -8 12
-24 23 -36 10 -11 19 -25 19 -30 0 -5 9 -15 20 -22 11 -7 20 -17 20 -23 0 -12
37 -62 42 -57 7 5 47 -36 42 -44 -3 -4 -1 -8 3 -8 5 0 26 -16 48 -35 21 -20
40 -33 43 -30 3 2 22 -11 43 -30 41 -37 177 -86 220 -80 55 9 109 31 109 44 0
6 7 8 15 5 8 -4 15 -1 15 4 0 6 43 54 95 106 57 58 92 101 89 110 -3 7 2 21
11 30 9 9 13 16 8 16 -4 0 2 7 14 15 13 9 20 22 16 30 -3 9 1 22 8 31 7 9 15
28 16 43 4 32 22 100 33 122 5 9 6 26 3 37 -6 26 10 35 48 27 22 -5 29 -11 25
-22 -5 -11 -1 -14 13 -10 11 3 21 2 23 -2 3 -5 39 -31 114 -82 13 -9 38 -28
54 -42 17 -15 30 -25 30 -22 0 3 12 -6 28 -20 15 -14 35 -28 44 -31 10 -3 18
-12 18 -20 0 -8 5 -12 10 -9 6 4 13 -7 16 -24 4 -17 11 -29 18 -28 6 1 10 -4
8 -11 -1 -8 1 -11 6 -8 11 6 82 -41 82 -55 0 -5 20 -31 45 -57 25 -26 45 -50
45 -55 0 -8 53 -69 83 -96 9 -8 17 -19 17 -23 0 -5 20 -28 44 -52 24 -24 56
-61 72 -82 16 -22 32 -41 35 -44 8 -5 53 -89 101 -185 16 -33 34 -68 39 -77 5
-10 9 -25 9 -34 0 -9 9 -27 20 -41 11 -14 20 -34 20 -43 0 -10 11 -42 25 -72
14 -29 25 -63 25 -75 0 -12 4 -32 9 -45 5 -13 10 -27 11 -33 1 -5 11 -22 21
-37 10 -14 19 -31 19 -36 0 -6 5 -23 12 -39 6 -15 12 -30 13 -33 1 -3 6 -16
12 -30 10 -25 24 -62 68 -190 12 -36 26 -87 30 -114 4 -28 18 -81 32 -119 14
-38 26 -83 29 -101 2 -17 10 -76 19 -131 8 -55 15 -109 15 -120 0 -11 0 -27 0
-35 0 -8 -2 -51 -4 -95 -1 -44 1 -92 5 -107 4 -16 3 -30 -2 -34 -5 -3 -3 -14
5 -26 10 -13 12 -27 7 -37 -5 -9 -7 -36 -4 -61 9 -95 4 -255 -10 -265 -15 -12
-15 -23 0 -51 12 -21 9 -89 -7 -179 -5 -27 -12 -72 -15 -100 -11 -98 -17 -132
-45 -250 -35 -146 -50 -236 -50 -299 0 -25 -7 -62 -14 -81 -8 -19 -12 -35 -9
-35 3 0 0 -6 -6 -14 -7 -8 -9 -30 -5 -58 6 -44 -14 -127 -38 -155 -6 -7 -8
-26 -5 -42 5 -22 0 -34 -19 -51 -13 -13 -24 -30 -24 -37 0 -8 -7 -28 -16 -45
-9 -17 -17 -41 -18 -52 -2 -12 -14 -34 -29 -50 -14 -15 -23 -34 -20 -42 5 -13
-8 -48 -57 -159 -5 -11 -16 -36 -24 -55 -8 -19 -31 -52 -50 -74 -28 -29 -36
-47 -36 -75 0 -24 -7 -42 -20 -54 -11 -9 -20 -25 -20 -36 0 -11 -4 -21 -8 -23
-12 -5 -52 -77 -52 -93 0 -8 -9 -22 -19 -32 -11 -10 -22 -30 -26 -46 -4 -15
-11 -30 -16 -33 -5 -3 -9 -18 -9 -34 0 -27 -32 -70 -52 -70 -4 0 -8 -5 -8 -11
0 -6 -12 -38 -26 -70 -18 -39 -33 -59 -44 -59 -10 0 -23 -13 -29 -28 -7 -16
-37 -55 -66 -87 -30 -32 -55 -63 -55 -67 0 -5 -15 -24 -32 -42 -18 -18 -38
-39 -44 -47 -19 -25 -95 -89 -105 -89 -5 0 -9 -5 -9 -11 0 -15 -61 -91 -68
-84 -7 7 -42 -25 -42 -40 0 -6 -23 -31 -51 -56 -28 -24 -81 -70 -118 -103 -36
-32 -81 -70 -100 -84 -18 -15 -47 -39 -64 -55 -17 -15 -51 -40 -76 -54 -73
-41 -125 -77 -139 -95 -6 -9 -25 -19 -40 -23 -15 -3 -40 -19 -56 -35 -15 -17
-40 -33 -54 -37 -15 -3 -42 -21 -61 -40 -19 -18 -42 -33 -52 -33 -9 0 -19 -4
-21 -10 -1 -5 -17 -11 -34 -13 -27 -4 -30 -1 -26 19 3 15 -3 26 -17 33 -26 14
-29 -3 -3 -18 14 -9 15 -10 1 -11 -22 0 -53 36 -46 54 3 8 -1 20 -9 27 -13 11
-15 10 -12 -6 3 -20 -18 -28 -37 -14 -6 4 -32 7 -59 5 -38 -2 -53 -7 -64 -24
-8 -12 -23 -22 -33 -22 -20 0 -79 -58 -79 -77 0 -7 -6 -16 -14 -20 -14 -8 -28
-67 -27 -114 1 -33 -13 -44 -64 -54 -22 -4 -49 -12 -60 -18 -11 -6 -31 -13
-44 -15 -14 -2 -32 -7 -42 -13 -10 -5 -33 -9 -51 -9 -18 0 -46 -7 -62 -15 -15
-8 -41 -15 -56 -15 -15 0 -43 -6 -62 -14 -19 -8 -66 -20 -104 -26 -38 -6 -78
-15 -89 -20 -22 -9 -58 -17 -119 -26 -21 -3 -58 -12 -82 -20 -43 -14 -115 -28
-144 -26 -8 0 -35 -4 -60 -9 -25 -5 -80 -11 -122 -13 -43 -3 -87 -10 -98 -16
-11 -6 -36 -8 -55 -4 -20 3 -48 2 -63 -4 -15 -6 -74 -14 -132 -17 -58 -3 -127
-9 -155 -14 -29 -5 -55 -5 -61 0 -6 5 -13 6 -16 4 -15 -15 -267 -32 -538 -35
-60 -1 -212 9 -231 16 -29 9 -40 10 -154 18 -84 6 -268 45 -325 69 -29 12 -25
11 -70 21 -19 5 -47 14 -61 22 -15 7 -40 16 -56 18 -16 3 -43 12 -60 21 -17 8
-50 18 -74 21 -24 4 -57 13 -73 21 -15 8 -40 17 -54 19 -15 3 -31 8 -37 13
-22 15 -172 59 -235 68 -19 3 -45 14 -58 26 -12 12 -35 23 -50 24 -15 2 -38
12 -52 22 -14 9 -63 32 -110 51 -47 18 -106 44 -133 58 -26 14 -50 22 -53 19
-4 -4 -31 7 -61 23 -30 17 -60 30 -68 30 -15 0 -156 92 -175 115 -7 8 -17 15
-22 15 -5 0 -28 9 -50 20 -23 11 -52 20 -65 20 -13 0 -23 4 -23 9 0 8 -151 90
-165 91 -3 0 -20 7 -38 17 -17 9 -41 18 -52 20 -11 2 -24 8 -29 13 -6 6 -20
10 -31 10 -12 0 -29 8 -38 18 -9 10 -49 33 -89 52 -40 19 -74 38 -76 43 -2 4
-9 7 -16 7 -6 0 -35 16 -65 35 -29 19 -56 35 -59 35 -4 0 -29 16 -57 36 -27
19 -73 50 -100 68 -28 19 -57 42 -65 51 -8 10 -46 38 -85 63 -38 25 -79 54
-90 63 -64 56 -115 111 -115 124 0 15 -82 100 -164 170 -25 22 -60 52 -76 67
-17 15 -45 37 -63 49 -18 12 -48 38 -68 58 -19 20 -59 59 -87 86 -64 61 -74
72 -97 107 -9 16 -22 25 -29 21 -6 -3 -8 -3 -4 2 4 4 1 20 -7 34 -8 14 -24 52
-36 84 -11 31 -27 64 -35 72 -9 8 -18 27 -20 42 -3 16 -13 39 -22 53 -23 34
-58 98 -78 140 -9 19 -30 52 -46 73 -16 20 -27 37 -23 37 4 0 2 7 -5 15 -7 8
-10 24 -7 35 3 11 2 20 -2 20 -7 0 -41 89 -47 126 -2 13 -6 36 -9 52 -3 15 -8
41 -10 57 -12 82 -18 105 -26 105 -6 0 -7 4 -4 10 3 5 -1 23 -10 40 -8 16 -13
30 -9 30 4 0 1 7 -6 15 -7 8 -9 15 -5 15 5 0 1 8 -8 18 -9 10 -19 36 -22 57
-4 22 -14 57 -24 78 -12 23 -14 37 -7 37 8 0 8 2 0 8 -11 7 -24 50 -27 90 -1
12 -4 22 -7 22 -5 0 -2 258 5 417 2 52 -1 95 -6 99 -5 3 -7 9 -4 13 2 5 0 22
-4 39 -7 24 -6 34 6 44 26 21 198 18 403 -8 19 -2 71 -6 115 -8 44 -3 105 -9
135 -15 30 -6 95 -17 143 -25 48 -8 109 -19 135 -24 55 -11 257 -8 357 6 39 6
77 10 85 10 8 1 42 6 75 12 33 5 92 14 130 19 39 4 80 13 91 19 12 6 31 10 43
7 11 -2 23 0 26 6 4 5 27 9 53 9 128 2 199 47 207 132 1 10 8 24 14 32 6 8 13
28 16 46 2 17 8 37 13 43 6 7 12 28 15 48 2 19 10 45 16 58 7 12 11 25 8 27
-3 3 0 24 6 47 9 37 13 72 16 130 1 10 5 16 9 13 5 -3 5 16 1 42 -6 37 -4 50
9 59 9 7 20 9 26 4 17 -13 134 -22 141 -11 4 6 11 7 17 4 6 -4 27 -9 46 -11
19 -2 44 -8 54 -14 11 -6 31 -13 45 -15 13 -3 48 -16 76 -29 32 -16 70 -26
104 -26 42 -1 63 -9 105 -36 29 -19 54 -35 56 -34 11 5 22 -2 22 -15 0 -8 4
-12 10 -9 5 3 3 -12 -5 -34 -8 -23 -10 -43 -5 -46 17 -11 23 -96 9 -138 -16
-53 -27 -332 -16 -436 3 -25 1 -55 -4 -68 -5 -14 -5 -23 1 -23 19 0 10 -38
-12 -52 l-22 -15 22 -28 c12 -15 22 -35 22 -44 0 -10 4 -21 10 -27 5 -5 12
-23 14 -39 6 -52 37 -117 53 -111 8 3 13 0 12 -7 -4 -21 13 -47 25 -40 7 4 7
2 -1 -7 -16 -17 12 -60 38 -60 11 0 27 -4 37 -9 9 -5 28 -14 42 -20 14 -6 39
-20 55 -30 17 -11 44 -20 60 -21 17 0 46 -9 65 -19 31 -15 38 -15 58 -3 17 11
33 12 71 5 33 -7 55 -6 67 0 21 12 138 12 159 0 8 -5 40 -6 72 -3 32 3 78 2
103 -3 25 -4 58 -5 73 -1 15 3 60 6 100 7 49 0 75 5 82 14 9 12 15 12 36 1 29
-15 268 -16 361 -1 31 5 105 8 165 6 59 -2 144 -4 188 -4 44 0 107 -6 139 -13
33 -8 69 -11 80 -7 24 8 43 7 105 -9 25 -6 48 -7 55 -2 17 14 98 7 137 -11 44
-21 56 -22 103 -12 25 5 46 4 57 -3 9 -6 32 -9 51 -6 19 4 52 1 73 -5 27 -7
42 -7 51 0 7 6 22 8 34 4 48 -15 83 -14 96 3 7 9 16 17 21 17 4 0 20 11 35 24
14 13 29 21 32 20 3 -2 15 10 25 28 12 19 38 40 65 52 25 11 46 24 46 30 0 5
14 12 30 16 17 4 30 13 30 20 0 8 25 29 55 47 44 26 55 38 53 55 -2 12 2 23 7
25 6 1 23 22 39 47 16 26 37 52 47 59 10 7 25 34 33 60 8 26 18 56 22 67 7 17
6 18 -8 7 -14 -11 -16 -8 -21 20 -3 20 1 42 9 55 8 12 11 29 8 37 -3 8 2 29
11 46 15 29 15 33 1 49 -22 24 -20 38 8 66 l24 24 -21 28 c-18 23 -22 42 -24
118 -1 49 -4 131 -6 180 -3 50 0 106 4 126 7 26 5 48 -6 79 -8 24 -16 83 -17
138 -1 55 -7 112 -15 130 -8 18 -11 37 -8 43 4 5 -2 33 -12 62 -10 28 -19 58
-19 65 -2 39 -6 50 -29 76 -14 16 -26 37 -26 48 -1 10 -2 22 -3 26 -2 14 -119
154 -160 192 -52 47 -122 70 -236 77 -87 5 -161 26 -146 40 12 12 -93 42 -121
34 -17 -5 -37 -2 -53 6 -18 9 -53 11 -128 7 -62 -4 -121 -2 -146 5 -22 6 -70
13 -106 15 -85 6 -241 25 -249 31 -9 5 -59 5 -366 0 -292 -4 -355 -8 -376 -21
-8 -5 -52 -9 -99 -10 -47 0 -125 -8 -175 -17 -49 -9 -144 -22 -210 -28 -66 -6
-151 -15 -190 -20 -161 -18 -159 -18 -177 -2 -13 12 -21 13 -31 5 -7 -7 -23
-9 -35 -7 -12 3 -32 7 -43 10 -12 2 -37 9 -55 15 -19 7 -44 8 -56 4 -13 -5
-33 -9 -45 -9 -13 0 -23 -4 -24 -10 -2 -13 -55 -45 -73 -45 -8 0 -21 -12 -31
-26 -16 -25 -16 -25 3 -15 11 6 22 8 25 5 8 -8 -4 -35 -13 -29 -4 3 -13 -2
-20 -10 -11 -13 -8 -17 19 -28 38 -14 36 -25 -12 -56 -21 -14 -33 -27 -28 -31
6 -3 8 -23 5 -44 -4 -33 -2 -37 10 -27 11 9 16 9 22 -1 15 -23 12 -36 -6 -41
-10 -2 -23 -14 -29 -26 -11 -19 -9 -21 18 -21 16 0 33 -4 36 -10 3 -5 1 -10
-5 -10 -7 0 -8 -6 0 -19 14 -27 13 -94 -2 -109 -18 -18 -69 -14 -107 9 -19 11
-43 21 -55 23 -12 1 -40 12 -63 24 -23 12 -55 22 -70 22 -15 0 -41 7 -57 15
-16 9 -31 13 -34 10 -3 -3 -14 2 -24 12 -15 13 -23 14 -44 5 -27 -13 -74 -6
-74 11 0 6 -3 8 -6 4 -4 -3 -20 1 -36 9 -16 8 -44 14 -61 12 l-32 -3 0 57 c0
31 -3 60 -7 64 -5 4 -8 23 -8 41 0 19 -5 43 -10 53 -7 12 -7 21 0 25 5 3 8 22
5 42 -2 20 -1 53 4 73 7 30 5 39 -9 48 -9 5 -17 16 -17 24 0 7 -3 20 -7 28 -4
9 5 28 23 48 17 17 27 32 24 32 -3 0 0 7 7 15 17 20 5 62 -20 70 -11 4 -28 18
-37 31 -21 32 -68 56 -118 60 -135 11 -170 16 -180 24 -6 5 -58 9 -116 8 -58
-1 -110 1 -117 6 -14 8 -47 17 -82 20 -14 2 -35 6 -48 10 -16 5 -29 3 -41 -8
-21 -19 -106 -15 -150 7 -17 8 -48 18 -71 22 -22 4 -42 10 -45 15 -3 4 -24 2
-47 -4 -24 -7 -65 -11 -93 -9 -27 2 -75 5 -105 6 -30 1 -61 6 -69 11 -10 6
-16 6 -18 -1 -4 -12 -147 -7 -169 6 -14 7 18 83 49 116 10 11 16 27 14 36 -2
9 4 21 14 27 11 7 16 20 14 32 -2 13 4 25 16 33 10 6 19 19 19 29 0 9 4 18 8
20 4 2 18 18 31 37 l24 33 171 -6 c94 -4 199 -10 232 -14 34 -5 70 -5 80 -1
11 4 35 0 54 -8 19 -8 59 -16 89 -18 29 -2 64 -11 77 -20 13 -8 34 -17 46 -19
13 -3 25 -5 28 -6 3 -2 8 -2 13 -1 4 0 7 -3 7 -8 0 -4 11 -6 25 -3 14 2 37 -1
53 -7 34 -14 86 -15 137 -4 40 9 89 32 71 33 -6 0 12 20 38 45 27 25 44 45 38
45 -15 0 -23 45 -13 73 10 26 0 52 -20 52 -7 0 -28 24 -48 53 -20 30 -43 52
-53 52 -10 0 -18 4 -18 9 0 8 -30 13 -160 26 -30 3 -73 9 -95 14 -22 5 -58 9
-80 10 -41 2 -53 4 -95 14 -14 4 -56 9 -95 12 -190 14 -209 17 -221 33 -10 13
-8 22 7 43 10 14 16 29 12 33 -3 3 -1 6 6 6 7 0 10 3 7 8 -5 8 14 37 29 43 6
2 9 8 7 13 -1 4 2 14 8 20 5 7 7 15 4 18 -2 3 1 8 9 11 8 3 14 -1 14 -9 0 -8
-4 -14 -9 -14 -4 0 -8 -6 -8 -12 0 -7 21 9 45 35 25 26 45 53 45 59 0 6 3 9 6
5 7 -7 50 30 47 41 -3 13 19 32 30 25 6 -4 8 0 4 11 -4 9 -3 15 2 11 16 -9 42
7 37 22 -3 8 -2 12 2 10 10 -7 32 19 24 29 -4 4 -2 4 4 1 6 -3 18 3 27 14 10
11 23 17 30 13 6 -4 9 -4 5 1 -7 8 49 65 65 65 4 0 7 5 7 11 0 5 -4 7 -10 4
-16 -10 -11 1 7 16 11 10 14 10 9 2 -4 -7 -3 -13 3 -13 5 0 11 3 13 8 2 4 32
30 68 57 36 28 71 57 78 65 8 8 11 9 7 3 -3 -7 -1 -13 4 -13 6 0 11 7 11 16 0
10 7 14 23 12 13 -2 21 2 19 10 -1 6 5 12 13 12 8 0 15 4 15 10 0 5 7 7 16 3
9 -3 19 -2 23 3 3 5 17 15 31 22 14 7 44 22 66 35 23 12 47 23 55 25 8 2 21 9
29 17 17 15 79 47 82 43 2 -2 17 7 35 20 17 12 35 22 40 22 5 0 14 5 21 12 6
6 20 13 29 14 10 2 19 7 20 11 3 7 46 9 116 5z m5039 -107 c29 -10 60 -23 68
-30 16 -13 54 -24 104 -31 15 -2 34 -9 42 -15 8 -6 14 -8 14 -3 0 5 4 4 8 -1
4 -6 22 -21 40 -34 26 -18 31 -27 25 -44 -4 -12 -8 -40 -8 -62 -1 -22 -6 -51
-12 -65 -6 -14 -15 -38 -20 -55 -5 -18 -15 -30 -25 -29 -13 1 -15 -3 -9 -20
21 -57 -89 -170 -149 -151 -25 8 -68 52 -76 79 -4 11 -28 41 -55 67 -34 34
-47 53 -44 68 2 13 -4 29 -16 40 -23 22 -32 71 -19 106 6 17 5 32 -5 52 -8 15
-15 36 -15 45 0 9 -4 20 -10 23 -15 9 -12 37 6 63 13 20 23 22 59 19 24 -3 67
-13 97 -22z m-6668 -1875 c20 -6 41 -8 48 -3 15 9 68 11 68 2 0 -4 10 -7 23
-7 12 1 69 -3 127 -7 58 -4 122 -7 142 -6 20 1 39 -2 42 -7 3 -5 31 -10 62
-11 32 -1 62 -5 67 -8 5 -3 63 -7 127 -9 65 -1 128 -7 139 -14 12 -6 26 -8 33
-4 31 20 223 -3 239 -28 7 -10 3 -160 -6 -238 -2 -25 -1 -62 4 -83 9 -40 4
-57 -51 -174 -18 -40 -19 -45 -4 -74 17 -33 15 -41 -17 -76 -15 -17 -17 -26
-9 -36 7 -8 9 -17 5 -20 -3 -4 2 -17 13 -29 10 -12 13 -18 7 -14 -9 5 -11 2
-7 -7 3 -9 13 -13 26 -9 16 4 19 1 14 -14 -3 -11 -8 -33 -10 -49 -5 -44 -17
-85 -25 -85 -3 0 -7 -31 -8 -69 -4 -100 -20 -140 -72 -175 -33 -22 -61 -31
-115 -37 -39 -4 -96 -12 -126 -19 -54 -11 -79 -14 -250 -26 -124 -9 -247 -3
-273 13 -6 3 -28 5 -50 5 -21 -1 -44 1 -50 5 -6 4 -32 7 -57 8 -61 3 -141 15
-161 26 -9 4 -36 10 -60 12 -42 4 -95 16 -169 39 -19 6 -78 14 -132 18 -55 3
-103 12 -112 19 -9 7 -23 11 -31 7 -9 -3 -13 -2 -10 4 3 6 -5 10 -18 10 -42 0
-45 46 -8 98 12 18 19 32 15 32 -3 0 -1 6 5 13 6 8 8 17 4 20 -3 4 -1 7 6 7 7
0 11 8 10 18 -1 9 3 28 8 42 6 14 8 31 5 39 -3 7 1 17 9 22 12 7 12 9 0 9 -11
0 -11 3 -1 15 7 8 10 15 6 15 -4 0 1 11 9 24 9 13 18 53 21 88 4 38 12 71 22
82 13 15 14 18 2 11 -9 -5 -7 1 5 14 11 13 21 35 21 50 3 38 2 38 22 57 9 10
18 27 19 38 1 12 11 43 23 70 11 27 25 70 30 95 12 52 40 123 54 132 5 4 7 16
4 27 -4 12 2 26 14 36 10 9 16 20 13 25 -2 5 3 12 12 15 15 6 15 8 3 16 -12 8
-12 10 4 10 12 0 16 5 12 15 -3 8 -1 15 4 15 6 0 10 6 10 14 0 9 12 16 28 18
59 7 212 -1 246 -12z m-635 -63 c-21 -41 -39 -99 -39 -120 0 -9 -6 -17 -12
-17 -15 0 -38 -45 -38 -71 0 -10 -4 -20 -9 -23 -4 -3 -11 -29 -15 -57 -6 -47
-47 -142 -66 -154 -15 -9 -33 24 -22 38 8 10 7 27 -4 63 -16 50 -14 141 2 153
6 3 10 17 11 31 4 74 10 91 43 126 36 37 67 54 110 61 14 2 27 9 29 14 2 7 7
7 14 0 8 -8 7 -20 -4 -44z m4290 -277 c69 0 127 2 129 5 3 2 16 -1 31 -8 15
-8 43 -11 66 -7 38 5 129 -2 185 -15 48 -11 136 -17 265 -18 106 -2 135 -5
155 -19 13 -10 35 -18 47 -18 13 0 31 -4 41 -10 29 -16 113 -41 121 -35 5 2
32 -4 62 -14 39 -12 80 -17 144 -16 84 2 155 -13 155 -34 0 -3 16 -23 35 -44
19 -21 33 -43 29 -48 -3 -6 8 -37 26 -70 18 -33 30 -63 27 -66 -3 -3 3 -28 14
-55 11 -28 19 -67 18 -87 -1 -20 3 -65 9 -101 5 -36 10 -76 10 -90 0 -14 3
-67 6 -117 3 -51 2 -94 -2 -97 -4 -2 -6 -69 -4 -148 4 -194 4 -198 -9 -214 -7
-8 -9 -29 -6 -49 5 -30 2 -38 -19 -51 -13 -9 -24 -22 -24 -29 0 -7 -11 -23
-25 -36 -13 -13 -25 -30 -25 -36 0 -7 -11 -13 -25 -13 -14 0 -25 -3 -25 -8 0
-13 -67 -45 -79 -38 -6 4 -11 0 -11 -8 0 -16 -33 -39 -43 -30 -3 3 -20 -1 -39
-10 -18 -8 -40 -16 -48 -18 -8 -2 -22 -16 -30 -33 -12 -25 -22 -30 -50 -30
-19 -1 -40 -4 -47 -8 -6 -4 -19 0 -28 9 -12 13 -26 15 -63 9 -72 -12 -96 -13
-108 -3 -6 4 -29 5 -50 0 -25 -5 -59 -3 -94 5 -30 7 -75 13 -100 13 -25 -1
-81 2 -125 4 -44 3 -169 7 -278 10 -108 3 -202 8 -209 12 -19 12 -112 12 -126
1 -9 -7 -25 -6 -51 2 -48 14 -95 14 -146 0 -50 -15 -223 -15 -296 -1 -29 6
-88 10 -129 9 -41 -2 -88 1 -105 6 -16 4 -81 10 -144 12 -81 2 -119 8 -131 18
-12 10 -22 12 -34 5 -18 -10 -67 -3 -65 10 3 20 -3 32 -16 32 -14 0 -19 11
-16 38 1 7 -5 15 -14 18 -12 5 -14 17 -10 59 3 35 0 58 -9 71 -10 13 -11 24
-5 37 6 10 7 27 4 38 -4 13 -1 27 10 39 14 16 15 22 2 52 -13 30 -12 44 4 123
27 130 30 166 20 202 -7 23 -6 37 5 50 17 23 17 48 -2 102 -8 24 -12 51 -9 60
13 34 17 129 5 150 -6 12 -8 27 -4 33 12 20 13 102 1 116 -8 10 -7 23 2 48 13
37 8 54 -15 54 -13 0 -13 3 0 23 8 12 16 44 17 71 3 48 22 82 40 70 6 -3 15
-1 22 4 11 9 50 18 117 29 14 2 51 5 83 7 33 2 62 8 66 14 7 12 83 18 119 9
12 -3 48 -1 80 4 99 17 257 40 267 38 6 0 45 -2 88 -4 43 -2 84 -6 91 -8 8 -3
25 1 40 8 14 8 26 11 26 7 0 -3 5 -1 11 5 7 7 26 10 43 7 17 -3 87 -5 155 -4z
m-4465 -201 c-8 -14 -24 -10 -24 6 0 9 6 12 15 9 8 -4 12 -10 9 -15z m76 -234
c0 -8 -4 -15 -10 -15 -5 0 -10 7 -10 15 0 8 5 15 10 15 6 0 10 -7 10 -15z
m-190 -29 c0 -3 -4 -8 -10 -11 -5 -3 -10 -1 -10 4 0 6 5 11 10 11 6 0 10 -2
10 -4z m4 -291 c3 -8 1 -15 -3 -15 -5 0 -11 7 -15 15 -3 8 -1 15 3 15 5 0 11
-7 15 -15z m26 -95 c0 -5 -2 -10 -4 -10 -3 0 -8 5 -11 10 -3 6 -1 10 4 10 6 0
11 -4 11 -10z m-50 -810 c0 -5 -5 -10 -11 -10 -5 0 -7 5 -4 10 3 6 8 10 11 10
2 0 4 -4 4 -10z m2796 -3531 c38 -11 96 -33 129 -49 33 -15 77 -35 98 -44 20
-9 37 -20 37 -26 0 -5 20 -10 45 -10 35 0 51 -6 78 -30 19 -17 50 -33 68 -36
19 -4 46 -13 61 -20 15 -8 36 -14 48 -14 12 0 32 -12 46 -27 14 -15 36 -27 52
-28 15 -1 33 -4 40 -9 6 -4 24 -9 39 -11 50 -8 157 -41 193 -60 19 -10 51 -22
70 -27 19 -5 51 -14 70 -19 19 -6 50 -14 69 -17 26 -5 37 -14 44 -35 10 -32 8
-36 -23 -42 -13 -3 -26 -9 -29 -14 -7 -11 -113 -89 -162 -119 -20 -12 -47 -21
-60 -21 -13 1 -76 -22 -139 -51 -127 -59 -171 -78 -182 -80 -4 0 -52 -21 -105
-47 -102 -47 -203 -83 -234 -83 -10 0 -21 -4 -24 -10 -3 -5 -16 -10 -29 -10
-12 0 -26 -4 -32 -9 -5 -5 -25 -14 -44 -20 -38 -11 -179 -61 -223 -79 -29 -12
-117 -5 -117 9 0 18 -22 8 -54 -24 -29 -29 -92 -53 -161 -62 -5 -1 -23 -7 -39
-13 -16 -7 -44 -14 -63 -17 -20 -2 -43 -7 -53 -10 -27 -9 -43 19 -36 62 6 39
13 105 18 179 2 22 9 48 16 57 8 9 11 20 8 26 -3 5 -2 21 4 35 7 21 6 26 -5
26 -17 0 -20 16 -5 25 6 3 10 17 10 30 0 13 4 26 9 30 5 3 13 19 16 36 11 47
45 121 71 152 13 16 24 35 24 43 0 8 11 19 25 24 14 5 26 16 26 25 3 28 4 33
12 41 4 4 7 18 7 30 0 23 31 49 43 37 7 -6 23 28 31 68 3 14 16 36 29 50 37
38 92 84 97 81 3 -2 13 13 24 33 19 37 71 95 86 95 4 0 39 -9 76 -21z m4568
-174 c11 -8 17 -15 13 -15 -4 0 -3 -9 3 -20 6 -11 16 -20 22 -20 13 0 15 -2
166 -148 61 -61 112 -116 112 -123 0 -15 39 -45 53 -41 11 3 87 -47 88 -58 1
-6 2 -16 3 -22 0 -7 13 -14 28 -16 19 -2 43 -21 75 -58 29 -32 56 -54 69 -54
11 0 48 -26 82 -57 74 -70 118 -104 154 -122 35 -18 132 -110 141 -134 4 -10
11 -16 16 -13 12 8 69 -42 196 -171 199 -202 225 -231 225 -246 0 -9 13 -17
35 -21 23 -5 41 -16 52 -34 9 -15 34 -48 55 -73 21 -26 41 -62 45 -79 4 -21
26 -53 57 -85 28 -28 58 -60 66 -71 26 -35 55 -97 52 -112 -2 -8 1 -11 6 -8 5
3 16 -9 25 -27 50 -104 86 -186 93 -211 3 -15 13 -30 21 -33 13 -5 49 -63 39
-63 -8 0 16 -64 30 -80 19 -23 77 -200 75 -233 -1 -15 7 -37 19 -49 11 -12 25
-40 31 -63 6 -22 18 -60 25 -84 8 -25 14 -56 14 -71 0 -14 5 -31 11 -37 8 -8
3 -15 -19 -27 -36 -18 -68 -21 -77 -6 -4 6 -16 8 -28 4 -12 -4 -58 -9 -102
-11 -44 -2 -96 -5 -115 -7 -19 -2 -42 0 -51 5 -10 5 -26 1 -44 -10 -25 -15
-34 -15 -65 -5 -22 8 -37 9 -41 2 -6 -10 -119 -7 -119 3 0 4 -17 3 -38 -2 -20
-4 -69 -8 -107 -8 -39 0 -106 -2 -150 -4 -44 -2 -83 -2 -87 0 -13 7 -372 17
-518 15 -155 -3 -264 -9 -300 -17 -59 -14 -326 -9 -335 5 -6 10 -36 5 -67 -10
-23 -11 -41 -11 -95 -1 -38 6 -99 11 -138 10 -38 -2 -158 1 -265 5 -107 4
-202 7 -210 6 -74 -2 -187 0 -295 5 -71 3 -141 6 -155 6 -22 -1 -64 -1 -122 0
-10 0 -37 0 -60 -1 -24 0 -54 2 -68 5 -14 4 -29 7 -35 7 -25 0 -174 -2 -210
-3 -40 -2 -67 -2 -115 1 -14 1 -50 -1 -80 -5 -62 -8 -58 -8 -127 1 -28 4 -73
1 -100 -5 -58 -14 -126 -16 -213 -6 -36 4 -153 8 -260 10 -107 2 -195 4 -195
5 0 1 -52 3 -115 5 -63 1 -126 5 -139 8 -28 7 -70 9 -206 6 -55 -1 -137 3
-183 8 -46 5 -86 5 -88 1 -3 -5 -11 -5 -17 -1 -7 4 -34 8 -62 9 -46 2 -91 8
-265 36 -36 5 -89 18 -118 29 -29 10 -64 19 -78 19 -26 0 -143 34 -181 52 -12
6 -32 12 -45 13 -13 1 -23 3 -23 4 0 1 -16 4 -35 7 -19 2 -57 12 -85 21 -27
10 -54 16 -60 14 -13 -4 -125 20 -148 31 -10 5 -34 11 -54 14 -20 2 -63 11
-97 20 -33 9 -78 18 -101 20 -22 3 -53 9 -70 14 -16 4 -52 11 -79 15 -67 9
-80 25 -82 101 -1 50 2 64 15 70 9 4 19 7 23 6 11 -3 48 49 47 67 0 10 -2 12
-6 4 -9 -24 -19 -13 -21 23 -2 21 1 33 7 30 13 -9 34 31 27 50 -7 19 15 63 43
86 12 10 22 28 22 40 1 13 2 35 3 50 1 15 9 35 18 45 10 12 14 29 11 51 -3 17
-1 32 4 32 5 0 9 9 10 21 1 11 16 34 32 50 17 16 31 38 31 49 0 12 12 26 30
35 17 9 30 22 30 29 0 19 60 86 77 86 8 0 16 7 19 15 4 8 11 12 18 8 6 -4 5 1
-3 10 -12 15 -11 17 3 17 11 0 15 5 10 13 -4 7 -3 9 2 4 5 -5 9 -14 9 -20 0
-7 12 -11 25 -9 26 2 106 81 93 91 -15 11 -8 36 15 49 12 7 22 17 22 22 0 11
106 60 131 60 10 0 20 4 24 9 3 5 19 13 37 16 17 4 78 29 134 56 57 27 109 49
116 49 15 0 170 63 220 90 21 11 75 34 120 51 46 17 128 52 183 78 108 52 219
91 259 91 16 0 27 7 31 20 6 18 99 90 116 90 4 0 6 -18 5 -41 0 -29 5 -45 17
-54 17 -12 18 -17 4 -70 -14 -56 -14 -57 9 -67 13 -6 25 -16 25 -22 3 -23 -3
-51 -12 -57 -5 -3 -3 -24 6 -48 13 -39 13 -46 -1 -77 -15 -32 -15 -36 1 -54 9
-10 14 -24 10 -30 -4 -7 -1 -23 6 -37 10 -19 11 -28 1 -44 -7 -11 -10 -24 -7
-28 2 -5 0 -23 -6 -40 -8 -22 -8 -40 1 -66 15 -46 6 -73 -27 -77 -38 -4 -41
-27 -4 -34 41 -8 49 -23 24 -43 -19 -15 -43 -52 -43 -65 0 -3 9 -6 20 -6 24 0
25 -8 4 -60 -18 -44 -8 -71 24 -64 9 2 24 0 32 -5 12 -8 12 -13 2 -23 -6 -6
-12 -22 -12 -35 0 -13 -4 -23 -10 -23 -5 0 -10 -5 -10 -11 0 -8 4 -8 14 0 11
9 18 6 34 -14 19 -23 50 -37 37 -15 -8 13 26 0 43 -17 10 -10 18 -10 33 -2 27
14 49 5 49 -20 0 -23 24 -34 48 -22 22 12 54 24 67 25 5 1 20 17 33 36 13 19
27 35 31 35 5 0 25 15 46 33 21 17 45 32 53 32 20 0 52 29 52 48 0 11 8 13 28
9 22 -4 43 3 86 29 31 19 60 34 63 34 4 0 48 20 100 45 51 25 100 45 108 45 8
0 36 11 62 25 27 14 82 39 123 55 41 17 148 67 236 110 89 44 168 80 176 80 8
0 29 11 47 24 18 14 38 23 45 20 6 -2 26 11 44 31 19 19 39 35 45 35 17 0 99
57 119 82 14 20 19 21 44 9 23 -10 30 -10 39 1 14 18 37 31 134 79 50 24 85
48 88 59 4 16 78 60 100 60 3 0 13 7 22 15 29 29 125 96 166 117 65 33 176
117 215 163 5 6 33 37 63 71 29 33 62 74 72 91 10 17 29 36 42 42 12 6 23 17
23 26 0 8 11 22 24 30 16 11 25 28 29 57 3 24 14 48 24 56 10 7 17 21 15 31
-1 9 8 29 21 43 45 49 67 86 61 103 -4 10 2 24 15 36 12 11 19 25 15 30 -7 12
14 39 30 39 6 0 20 -7 30 -15z m-614 -176 c0 -3 -11 -18 -25 -33 -14 -15 -25
-31 -25 -35 0 -5 -7 -11 -15 -15 -8 -3 -15 -11 -15 -18 0 -7 -16 -27 -35 -43
-19 -17 -35 -36 -35 -42 0 -7 -28 -26 -63 -41 -34 -16 -85 -45 -113 -65 -28
-20 -66 -40 -85 -44 -18 -3 -48 -17 -67 -30 -19 -12 -43 -23 -52 -23 -10 0
-23 -7 -31 -16 -7 -8 -20 -13 -29 -11 -20 5 -50 -10 -50 -25 0 -13 -30 -37
-48 -38 -8 0 -21 -9 -31 -21 -10 -12 -31 -22 -51 -24 -18 -1 -39 -10 -45 -19
-7 -9 -17 -16 -23 -16 -6 0 -15 -6 -19 -14 -12 -19 -48 -36 -77 -36 -15 0 -39
-13 -58 -30 -17 -16 -35 -30 -40 -30 -5 0 -28 -13 -51 -29 -23 -15 -52 -31
-64 -35 -11 -4 -24 -13 -27 -21 -3 -8 -14 -15 -24 -15 -11 0 -25 -7 -32 -15
-7 -8 -19 -15 -27 -15 -8 0 -38 -13 -67 -30 -30 -16 -69 -31 -87 -33 -37 -4
-125 -47 -175 -84 -17 -13 -33 -21 -36 -18 -4 5 -131 -36 -246 -79 -24 -9 -52
-18 -62 -19 -11 -2 -30 -13 -43 -25 -30 -28 -48 -28 -75 1 -17 18 -19 26 -10
35 9 9 9 20 0 46 -7 18 -12 58 -12 87 0 30 -1 63 -1 74 -1 23 7 101 17 153 5
25 3 33 -5 28 -7 -4 -9 -2 -5 8 3 8 1 24 -5 35 -9 16 -8 22 6 31 13 8 14 13 6
16 -8 4 -11 15 -7 30 5 18 2 24 -11 24 -9 0 -13 5 -10 11 4 6 8 48 10 94 2 45
9 93 16 106 7 13 12 28 11 32 -1 5 2 6 7 3 5 -4 14 1 19 10 8 15 30 18 133 20
264 7 355 12 380 22 15 6 69 13 122 15 53 3 100 8 105 11 5 3 95 7 200 10 105
2 196 7 203 12 7 4 62 8 121 9 66 0 112 5 119 12 6 6 17 9 24 7 7 -3 16 -1 20
5 3 6 25 11 48 11 49 0 140 21 241 54 39 13 105 33 146 45 41 12 86 25 100 29
31 9 60 10 60 1z"/>
<path d="M4886 9981 c-17 -17 -26 -36 -23 -45 3 -8 -5 -32 -19 -52 -27 -39
-26 -47 8 -98 33 -48 112 -130 126 -132 18 -1 139 -16 152 -19 106 -20 144
-25 161 -20 11 4 25 2 32 -3 7 -5 77 -15 157 -22 240 -22 315 -25 430 -21 36
1 94 0 130 -3 120 -9 200 -8 214 3 6 5 35 11 65 15 43 6 57 4 73 -11 12 -10
22 -13 26 -7 10 14 55 11 60 -3 5 -17 120 -17 159 -1 15 6 33 11 38 10 12 -2
35 32 40 60 3 11 10 27 16 35 7 8 14 24 15 36 9 69 9 72 -11 81 -11 5 -40 35
-65 67 -25 31 -47 56 -49 54 -2 -2 -15 10 -31 26 -15 17 -35 30 -46 29 -23 0
-123 -6 -226 -13 -42 -3 -86 -11 -97 -16 -11 -6 -60 -11 -108 -10 -48 0 -112
0 -141 0 -29 -1 -72 4 -94 10 -23 6 -93 10 -157 10 -64 -1 -125 -1 -136 -1
-24 0 -234 18 -290 25 -22 3 -76 7 -120 10 -44 3 -97 12 -118 20 -20 8 -61 15
-90 15 -46 0 -57 -4 -81 -29z"/>
<path d="M4085 8640 c-3 -5 -1 -10 4 -10 6 0 11 5 11 10 0 6 -2 10 -4 10 -3 0
-8 -4 -11 -10z"/>
<path d="M2743 6701 c-13 -11 -23 -23 -23 -28 0 -5 -13 -20 -30 -35 -33 -29
-40 -58 -13 -58 9 0 13 -3 10 -7 -4 -3 -2 -12 4 -20 9 -10 6 -18 -11 -33 -21
-18 -22 -23 -11 -47 10 -21 9 -28 -1 -34 -15 -9 -20 -67 -7 -75 5 -3 9 -18 9
-33 0 -17 14 -46 35 -72 19 -24 35 -51 35 -60 0 -9 18 -34 40 -55 22 -22 38
-45 35 -51 -3 -8 5 -13 20 -13 18 0 25 -5 25 -20 0 -17 15 -25 42 -22 3 1 12
-5 18 -13 7 -8 16 -15 21 -15 5 0 44 -17 86 -37 66 -32 87 -37 148 -37 42 -1
78 -6 87 -13 8 -7 31 -14 51 -15 20 -2 37 -7 37 -12 0 -4 11 -6 25 -4 27 6 43
-21 28 -44 -4 -7 -8 -56 -8 -108 -2 -95 7 -131 50 -213 8 -16 15 -34 15 -40 0
-7 25 -36 55 -65 30 -29 55 -60 55 -68 0 -8 8 -18 18 -21 9 -4 21 -12 25 -20
4 -7 14 -13 21 -13 8 0 19 -7 26 -15 7 -8 16 -12 21 -10 4 3 13 -4 19 -15 6
-11 18 -20 26 -20 11 0 14 -6 10 -16 -10 -26 12 -53 54 -65 22 -7 37 -16 34
-20 -11 -19 17 -49 46 -49 19 0 34 -7 42 -20 7 -11 21 -20 31 -20 10 0 42 -11
70 -24 29 -13 66 -26 82 -30 137 -25 254 -55 306 -78 26 -11 52 -17 58 -14 6
4 26 3 44 -3 18 -6 71 -13 116 -16 87 -4 155 -15 258 -42 43 -11 66 -13 75 -6
8 7 34 8 68 3 30 -4 59 -5 64 -2 5 3 45 6 90 8 45 1 101 7 126 13 25 7 75 15
111 20 36 5 75 14 88 20 18 10 27 10 44 -2 25 -16 81 -12 97 8 6 7 20 11 30 8
12 -3 22 1 26 11 3 9 10 14 14 11 10 -6 23 13 27 40 5 29 43 65 70 65 20 0 23
5 23 34 0 28 7 40 33 60 18 14 43 46 56 71 12 25 27 45 32 45 5 0 7 11 3 24
-3 15 1 34 11 49 11 18 13 26 4 29 -9 3 -9 9 -1 24 6 11 9 34 8 51 -1 18 3 34
9 37 7 2 11 21 10 43 -2 21 1 43 7 50 7 8 0 16 -21 28 -34 17 -39 36 -17 57 9
10 11 20 4 31 -7 13 -5 17 8 17 10 0 14 3 11 7 -4 3 -1 13 5 21 10 11 9 16 -5
23 -17 10 -24 39 -9 39 15 0 5 68 -12 85 -17 17 -19 28 -20 105 -1 36 -4 44
-17 42 -11 -1 -21 8 -27 27 -12 34 -8 41 25 41 13 0 23 4 23 9 0 23 -23 68
-45 89 -15 14 -22 28 -18 39 5 13 2 15 -15 11 -16 -4 -23 0 -29 16 -4 11 -6
24 -5 27 1 4 -10 10 -23 13 -15 4 -27 16 -31 30 -3 13 -20 30 -40 39 -19 9
-34 23 -34 32 0 11 -7 13 -30 9 -16 -4 -36 -2 -43 4 -18 15 -83 -1 -111 -27
-12 -11 -39 -23 -61 -26 -21 -2 -54 -12 -73 -21 -18 -8 -39 -13 -47 -11 -7 3
-39 -5 -71 -18 -40 -16 -89 -25 -154 -29 -52 -3 -122 -11 -155 -17 -66 -12
-130 -17 -310 -24 -66 -2 -152 -8 -190 -14 -106 -14 -302 -7 -349 13 -32 13
-46 14 -73 5 -18 -6 -38 -7 -45 -3 -20 13 -92 22 -108 14 -8 -4 -44 -1 -80 6
-35 8 -103 16 -150 19 -143 8 -339 37 -397 59 -21 8 -60 19 -88 26 -104 24
-152 57 -125 84 12 12 13 27 3 25 -31 -5 -39 3 -40 41 -1 22 -13 63 -28 91
-14 28 -23 55 -19 60 3 5 -11 9 -30 9 -28 0 -35 4 -38 22 -2 12 -9 23 -17 26
-8 3 -11 0 -7 -7 9 -14 -7 -14 -21 0 -21 21 -86 21 -110 0z m2602 -793 c16
-10 89 -7 102 4 16 13 43 3 43 -16 0 -12 12 -15 52 -13 34 1 53 -2 55 -10 3
-7 -2 -13 -11 -13 -9 0 -16 -4 -16 -10 0 -5 7 -10 16 -10 12 0 14 -8 10 -34
-4 -25 -1 -36 10 -40 11 -4 13 -13 9 -27 -4 -12 -1 -40 6 -62 10 -32 11 -41 1
-45 -16 -5 -16 -42 1 -42 6 0 0 -7 -15 -14 -48 -25 -48 -26 -36 -46 10 -16 9
-25 -5 -50 -11 -18 -14 -30 -7 -30 7 0 8 -6 2 -17 -7 -11 -25 -18 -58 -19 -42
-3 -54 -8 -79 -37 -17 -20 -60 -48 -99 -66 -74 -33 -92 -37 -98 -20 -2 7 -26
6 -78 -5 -92 -20 -180 -27 -180 -14 0 5 -5 6 -12 2 -7 -4 -47 -9 -91 -10 -59
-1 -80 2 -84 12 -3 8 -9 14 -15 14 -5 0 -6 -4 -3 -10 13 -21 -125 -11 -197 15
-55 20 -87 25 -147 24 -42 -1 -92 3 -111 9 -19 6 -51 13 -70 15 -40 4 -80 23
-96 45 -7 10 -20 13 -40 9 -36 -7 -42 -3 -74 45 -13 20 -33 39 -42 42 -10 2
-18 12 -18 21 0 13 -6 15 -29 10 -24 -5 -29 -3 -35 18 -3 15 -22 32 -50 46
-46 24 -78 75 -73 116 1 14 -5 21 -20 23 -24 4 -32 35 -13 47 6 4 8 15 5 25
-9 28 37 54 93 53 26 -1 52 3 58 8 6 5 36 5 70 -1 80 -12 135 -13 369 -6 110
4 220 12 244 18 37 10 46 9 55 -4 10 -14 15 -14 36 -3 15 9 55 14 100 13 41 0
98 6 125 14 38 12 72 14 139 8 66 -5 96 -4 114 6 14 7 37 11 51 8 14 -3 37 -1
51 4 27 10 69 10 85 0z m-1355 -438 c13 -8 13 -10 -2 -10 -9 0 -20 5 -23 10
-8 13 5 13 25 0z"/>
<path d="M8191 4187 c2 -1 13 -9 24 -17 19 -14 19 -14 6 3 -7 9 -18 17 -24 17
-6 0 -8 -1 -6 -3z"/>
<path d="M4216 11842 c-3 -4 4 -9 15 -9 23 -2 25 3 4 10 -8 4 -16 3 -19 -1z"/>
<path d="M7168 11743 c7 -3 16 -2 19 1 4 3 -2 6 -13 5 -11 0 -14 -3 -6 -6z"/>
</g>
</svg>
